<?xml version="1.0" standalone="no"?>
<!DOCTYPE svg PUBLIC "-//W3C//DTD SVG 1.1//EN" "http://www.w3.org/Graphics/SVG/1.1/DTD/svg11.dtd">

<svg width="135" height="50" viewBox="0 0 135 50" preserveAspectRatio="none" 
  xmlns="http://www.w3.org/2000/svg"
  xmlns:xlink="http://www.w3.org/1999/xlink">


<polyline points="0.0, 7.234512406747713 0.7988165680473372, 8.792893613758494 1.5976331360946745, 4.979388324475198 2.396449704142012, 0.0 3.195266272189349, 2.936257138065392 3.994082840236686, 4.621208494560369 4.792899408284024, 5.7967999013314175 5.591715976331361, 7.436521633499021 6.390532544378698, 8.28745063806385 7.189349112426036, 8.009303494612407 7.988165680473372, 9.572804334929202 8.78698224852071, 14.121450592787232 9.585798816568047, 17.24151326082509 10.384615384615385, 18.81832559328783 11.183431952662723, 18.3604208542783 11.982248520710058, 17.159171200931148 12.781065088757396, 21.031449215474414 13.579881656804734, 24.21566770880625 14.378698224852071, 22.379578905048433 15.177514792899409, 21.69280421297651 15.976331360946745, 21.7684986420328 16.775147928994084, 21.60044491846577 17.57396449704142, 22.654232807996898 18.37278106508876, 21.72406126790535 19.171597633136095, 21.1979140063337 19.970414201183434, 20.470729178115015 20.76923076923077, 21.75076433389316 21.56804733727811, 22.09206812316183 22.366863905325445, 19.486231595442234 23.16568047337278, 21.09302015526082 23.964497041420117, 21.937535916092767 24.763313609467456, 15.16216990793891 25.562130177514792, 18.297579839492347 26.36094674556213, 16.971809322657844 27.159763313609467, 18.98285271928902 27.958579881656807, 18.385593278638787 28.757396449704142, 18.73138260576715 29.55621301775148, 13.026810246599977 30.355029585798817, 7.935240858059081 31.153846153846157, 6.792159320057613 31.95266272189349, 8.804419976966043 32.751479289940825, 9.16649506231723 33.55029585798817, 8.779492430553775 34.349112426035504, 8.31932432244128 35.14792899408284, 10.483184168270892 35.94674556213018, 11.142075406010713 36.74556213017752, 5.660798857316406 37.54437869822485, 11.360459909964309 38.34319526627219, 11.322111407081236 39.142011834319526, 13.406736671252967 39.94082840236687, 14.138011573701428 40.7396449704142, 11.963568739943923 41.53846153846154, 10.495469846031334 42.337278106508876, 10.653746441152576 43.13609467455622, 12.01731381610643 43.93491124260355, 12.936807495786587 44.73372781065089, 11.885625601973567 45.532544378698226, 13.070214604076957 46.33136094674556, 14.294744646261268 47.1301775147929, 14.993878764226285 47.928994082840234, 16.644607854292303 48.72781065088758, 16.368698073259885 49.52662721893491, 17.699833828322397 50.32544378698225, 18.123981789014326 51.124260355029584, 17.99769350898497 51.92307692307693, 17.760986790804097 52.72189349112426, 16.921656009880742 53.5207100591716, 15.77209385134293 54.319526627218934, 16.500111951317447 55.11834319526627, 18.509253897630646 55.91715976331361, 18.397140460914922 56.71597633136094, 17.28122739523711 57.514792899408285, 17.74167325298304 58.31360946745562, 15.378856128966936 59.11242603550296, 20.182900459326408 59.91124260355029, 20.336407473302124 60.710059171597635, 18.405861734538803 61.50887573964497, 18.915721465397038 62.307692307692314, 19.898511390864236 63.10650887573964, 20.08057199988305 63.90532544378698, 20.09995246601421 64.70414201183432, 22.472803282040278 65.50295857988165, 22.140807779814864 66.30177514792899, 24.868986108709663 67.10059171597634, 23.60960457058741 67.89940828402366, 26.451045487251772 68.69822485207101, 26.22946721450533 69.49704142011834, 26.460171565910784 70.29585798816568, 23.74178414876041 71.09467455621302, 20.995739850618676 71.89349112426036, 21.383306291739657 72.6923076923077, 24.740515068037336 73.49112426035504, 25.63309043918735 74.28994082840237, 25.652159046484517 75.0887573964497, 27.171438430223677 75.88757396449704, 26.234278343518664 76.68639053254438, 25.588897910628077 77.48520710059172, 25.58753446974798 78.28402366863905, 30.43006197470775 79.0828402366864, 31.719519962220744 79.88165680473374, 35.31796958248147 80.68047337278107, 37.16861006709392 81.4792899408284, 37.431654287569096 82.27810650887574, 33.93135193160224 83.07692307692308, 31.223402211308947 83.87573964497041, 29.101851840289772 84.67455621301775, 32.95170072186044 85.4733727810651, 32.19423087828544 86.27218934911244, 36.28725895955124 87.07100591715975, 36.32214032354127 87.8698224852071, 37.60315587929658 88.66863905325444, 36.742721850017375 89.46745562130178, 36.518761057292984 90.26627218934911, 35.17032765609586 91.06508875739645, 33.93536140230445 91.8639053254438, 38.25111545216313 92.66272189349112, 37.492861882280046 93.46153846153845, 38.58350578795455 94.2603550295858, 39.09256385966515 95.05917159763314, 39.24477018382837 95.85798816568047, 39.55735765452037 96.65680473372781, 39.312280367978516 97.45562130177515, 37.119115334355605 98.2544378698225, 38.219827911711675 99.05325443786982, 37.23548674831789 99.85207100591715, 34.65604531956406 100.6508875739645, 29.637254424258835 101.44970414201183, 29.84184269802592 102.24852071005917, 30.115756762045166 103.04733727810651, 29.53189977616692 103.84615384615385, 27.20097545483373 104.64497041420118, 33.838733403850576 105.44378698224853, 38.69660403206389 106.24260355029585, 38.85885133550248 107.0414201183432, 43.18085369978492 107.84023668639053, 47.14876517179663 108.63905325443787, 46.410566169656406 109.43786982248521, 44.17385609451022 110.23668639053254, 46.576686264552094 111.03550295857988, 44.41032953174094 111.83431952662723, 46.26132257245897 112.63313609467457, 47.595768046549416 113.43195266272188, 48.34910876947035 114.23076923076923, 48.449992214946306 115.02958579881657, 47.75529734193101 115.82840236686391, 50.0 116.62721893491124, 48.02874433924602 117.42603550295858, 44.981759245376985 118.22485207100593, 44.70188693793308 119.02366863905324, 43.59514709899288 119.82248520710058, 40.9657501630587 120.62130177514793, 44.158694331828904 121.42011834319527, 41.67866688388624 122.2189349112426, 41.8618533245129 123.01775147928994, 40.91326692798268 123.81656804733728, 40.78942814224927 124.61538461538463, 40.17648964301871 125.41420118343194, 40.6646792259879 126.21301775147928, 28.695751280398095 127.01183431952663, 23.710850910115436 127.81065088757396, 25.626023124544545 128.60946745562129, 26.985771156252454 129.40828402366864, 25.018822847876855 130.20710059171597, 22.164613574483 131.0059171597633, 19.56680869136185 131.80473372781066, 18.84005988593229 132.60355029585799, 16.85649121548782 133.40236686390534, 16.817286228917823 134.20118343195267, 23.240227014081587" fill="none" stroke="#ff3a33" stroke-width="1.25"/>

</svg>