<?xml version="1.0" standalone="no"?>
<!DOCTYPE svg PUBLIC "-//W3C//DTD SVG 1.1//EN" "http://www.w3.org/Graphics/SVG/1.1/DTD/svg11.dtd">

<svg width="135" height="50" viewBox="0 0 135 50" preserveAspectRatio="none" 
  xmlns="http://www.w3.org/2000/svg"
  xmlns:xlink="http://www.w3.org/1999/xlink">


<polyline points="0.0, 38.5557446329343 0.7988165680473372, 39.545568912108855 1.5976331360946745, 39.85903217650472 2.396449704142012, 41.5988737341386 3.195266272189349, 39.641407690273915 3.994082840236686, 38.961149289836975 4.792899408284024, 33.20785185496039 5.591715976331361, 32.51458678780984 6.390532544378698, 33.2070920357104 7.189349112426036, 35.798130244435114 7.988165680473372, 38.23884057361725 8.78698224852071, 38.87539191812384 9.585798816568047, 36.78751589262822 10.384615384615385, 38.48831683284492 11.183431952662723, 37.64511589018482 11.982248520710058, 39.786805652210546 12.781065088757396, 38.03196100553819 13.579881656804734, 40.167178817204935 14.378698224852071, 39.74377019173255 15.177514792899409, 39.15148213600472 15.976331360946745, 39.34088897295858 16.775147928994084, 38.75644948315789 17.57396449704142, 38.202690001131586 18.37278106508876, 37.6441914016078 19.171597633136095, 35.2725885347174 19.970414201183434, 36.58554257548414 20.76923076923077, 36.82131341275003 21.56804733727811, 36.77418380861301 22.366863905325445, 37.01699161420477 23.16568047337278, 35.74329422382788 23.964497041420117, 37.68177319892029 24.763313609467456, 37.018465412524 25.562130177514792, 36.86806999955103 26.36094674556213, 35.24625143475226 27.159763313609467, 29.971008629376684 27.958579881656807, 28.66327707160275 28.757396449704142, 26.127253260517396 29.55621301775148, 30.250602772077308 30.355029585798817, 23.56871616889072 31.153846153846157, 28.025751430150603 31.95266272189349, 33.16964484182944 32.751479289940825, 29.842978818525562 33.55029585798817, 27.322887091687726 34.349112426035504, 24.10931198202887 35.14792899408284, 22.81908671231279 35.94674556213018, 22.60503479751334 36.74556213017752, 25.20057586360418 37.54437869822485, 25.049623461802085 38.34319526627219, 25.94723266292104 39.142011834319526, 24.789005777461647 39.94082840236687, 23.501168692182343 40.7396449704142, 25.024541945452718 41.53846153846154, 25.999138157236278 42.337278106508876, 26.30319761950576 43.13609467455622, 27.718896421799872 43.93491124260355, 28.40312270801703 44.73372781065089, 22.288308553447646 45.532544378698226, 24.22513788818071 46.33136094674556, 22.193775995011453 47.1301775147929, 24.13201322573715 47.928994082840234, 24.218535516713658 48.72781065088758, 21.31845511636413 49.52662721893491, 20.924966962996187 50.32544378698225, 17.255844374454206 51.124260355029584, 16.684288724847356 51.92307692307693, 18.65689830440825 52.72189349112426, 17.274098851300828 53.5207100591716, 14.854412761489302 54.319526627218934, 15.288114705745823 55.11834319526627, 14.065545402697735 55.91715976331361, 14.003154507130894 56.71597633136094, 14.66177985786971 57.514792899408285, 18.802687880624397 58.31360946745562, 21.14740256849287 59.11242603550296, 21.932756172445178 59.91124260355029, 21.220606236103002 60.710059171597635, 19.18035925003717 61.50887573964497, 21.126788619024918 62.307692307692314, 19.323886871748204 63.10650887573964, 22.453466133439345 63.90532544378698, 24.297697239093647 64.70414201183432, 21.07651974222473 65.50295857988165, 17.976445336950146 66.30177514792899, 19.4712341004729 67.10059171597634, 16.162589618253488 67.89940828402366, 19.13040849323087 68.69822485207101, 15.590165445493978 69.49704142011834, 19.60042579230885 70.29585798816568, 18.36780363209411 71.09467455621302, 19.509132587286253 71.89349112426036, 19.922780744416414 72.6923076923077, 18.368225420181492 73.49112426035504, 19.391510662224295 74.28994082840237, 17.59297568378122 75.0887573964497, 18.3605677418082 75.88757396449704, 20.547306691239797 76.68639053254438, 19.92594887369014 77.48520710059172, 21.479501810725544 78.28402366863905, 24.935695461626924 79.0828402366864, 25.938687764398843 79.88165680473374, 24.013511374781437 80.68047337278107, 28.326180427362313 81.4792899408284, 27.74956117692048 82.27810650887574, 25.3854701522548 83.07692307692308, 24.087665886621775 83.87573964497041, 17.956197609139952 84.67455621301775, 18.00178114976748 85.4733727810651, 27.299346253718326 86.27218934911244, 19.02822702888343 87.07100591715975, 24.736696841931945 87.8698224852071, 21.268703903264345 88.66863905325444, 26.064103366994058 89.46745562130178, 27.13068992094548 90.26627218934911, 24.27644199670002 91.06508875739645, 22.466568903083243 91.8639053254438, 22.709006977950832 92.66272189349112, 27.210692827229426 93.46153846153845, 23.678288842248893 94.2603550295858, 24.345959027745774 95.05917159763314, 25.707081710969863 95.85798816568047, 23.831985679949796 96.65680473372781, 22.029059598348983 97.45562130177515, 25.151869707335724 98.2544378698225, 24.436458031550153 99.05325443786982, 25.496030118486225 99.85207100591715, 26.493711485392147 100.6508875739645, 25.080726081936746 101.44970414201183, 24.85679025593159 102.24852071005917, 19.800997649984822 103.04733727810651, 17.444649999359065 103.84615384615385, 19.049488706230715 104.64497041420118, 24.36455822960645 105.44378698224853, 24.94802342379595 106.24260355029585, 20.712834053599067 107.0414201183432, 21.764123639866185 107.84023668639053, 20.18714105051899 108.63905325443787, 16.71001482385266 109.43786982248521, 15.02803590034823 110.23668639053254, 9.419476740113076 111.03550295857988, 10.630204012844853 111.83431952662723, 15.011075977303237 112.63313609467457, 14.833080925025556 113.43195266272188, 9.758097120221825 114.23076923076923, 0.0 115.02958579881657, 1.761064605712993 115.82840236686391, 8.151620351275373 116.62721893491124, 6.845027999488443 117.42603550295858, 7.4743416169225405 118.22485207100593, 1.2179615318520516 119.02366863905324, 6.434213294963671 119.82248520710058, 2.10163008546207 120.62130177514793, 3.3614827825500195 121.42011834319527, 3.61020660559686 122.2189349112426, 10.017837426187782 123.01775147928994, 11.023424389595176 123.81656804733728, 7.406779862660646 124.61538461538463, 0.9079989222379484 125.41420118343194, 5.676011398388985 126.21301775147928, 9.715155016840217 127.01183431952663, 22.331094822760885 127.81065088757396, 50.0 128.60946745562129, 26.270438492341146 129.40828402366864, 21.877988248585893 130.20710059171597, 25.428718175623082 131.0059171597633, 22.2001140518723 131.80473372781066, 22.625287392407483 132.60355029585799, 19.23053734279954 133.40236686390534, 26.464115602552514 134.20118343195267, 27.340283750956946" fill="none" stroke="#32ca5b" stroke-width="1.25"/>

</svg>